<svg enable-background="new 0 0 841.9 111.7" viewBox="0 0 841.9 111.7" xmlns="http://www.w3.org/2000/svg" xmlns:xlink="http://www.w3.org/1999/xlink"><linearGradient id="a"><stop offset="0" stop-color="#ec6446"/><stop offset=".1011" stop-color="#e85339"/><stop offset=".282" stop-color="#e33b29"/><stop offset=".4785" stop-color="#df2a1f"/><stop offset=".7001" stop-color="#dd1d1a"/><stop offset="1" stop-color="#dc1719"/></linearGradient><linearGradient id="b" gradientUnits="userSpaceOnUse" x1="5.5894" x2="77.3102" xlink:href="#a" y1="26.6954" y2="26.6954"/><linearGradient id="c" gradientUnits="userSpaceOnUse" x1="83.0216" x2="11.5383" xlink:href="#a" y1="67.3561" y2="67.3561"/><g fill="#212f44"><path d="m160.5 23.1c-4.7-5.3-11.4-7.9-20.1-7.9-7.1 0-12.3 1.4-15.6 4.1s-4.9 6.4-4.9 11c0 2.3.4 4.3 1.2 5.9s2.1 2.9 3.9 4 4 2 6.7 2.8 5.9 1.6 9.6 2.3c4 .8 7.6 1.7 10.7 2.7 3.2 1 5.9 2.2 8.1 3.8 2.2 1.5 3.9 3.4 5.2 5.6 1.2 2.2 1.8 4.9 1.8 8.1s-.6 6-1.9 8.4-3.1 4.4-5.4 6-5 2.8-8.2 3.7c-3.2.8-6.7 1.2-10.7 1.2-11.4 0-21.1-3.6-29-10.9l2.8-4.2c3.1 3.2 6.9 5.8 11.3 7.7 4.5 1.9 9.5 2.8 15 2.8 6.4 0 11.4-1.2 15-3.5s5.4-5.9 5.4-10.6c0-2.4-.5-4.5-1.4-6.1-.9-1.7-2.4-3.1-4.3-4.4s-4.3-2.3-7.2-3.2-6.2-1.8-10-2.6c-3.9-.8-7.4-1.7-10.4-2.6s-5.5-2.1-7.6-3.5-3.6-3.1-4.6-5.1-1.5-4.5-1.5-7.5c0-3.3.6-6.2 1.9-8.8 1.3-2.5 3-4.7 5.3-6.4 2.3-1.8 5-3.1 8.1-4s6.7-1.3 10.5-1.3c4.7 0 9 .7 12.7 2.1s7.1 3.6 10.1 6.4z"/><path d="m178.3 18.4v-9.5h5.2v9.5zm0 65.7v-53.5h5.2v53.6h-5.2z"/><path d="m277.5 84.1h-5.1v-29.8c0-6.8-1-11.8-3.1-15s-5.3-4.8-9.6-4.8c-2.3 0-4.4.4-6.4 1.2s-3.8 2-5.4 3.5-3 3.2-4.2 5.3c-1.2 2-2.2 4.3-2.8 6.8v33.1h-5.2v-30.1c0-6.9-1-11.9-3.1-15.1s-5.3-4.8-9.6-4.8c-2.2 0-4.3.4-6.3 1.2s-3.8 1.9-5.5 3.4c-1.6 1.5-3.1 3.2-4.3 5.3-1.2 2-2.2 4.3-2.9 6.8v33.2h-5.2v-53.7h4.7v12.8c2.3-4.3 5.2-7.7 8.8-10.1s7.5-3.6 11.8-3.6c4.5 0 8.2 1.3 11 4s4.4 6.2 5 10.5c5.2-9.7 12.2-14.5 21-14.5 5.9 0 10.1 2.1 12.6 6.2 2.5 4.2 3.8 10 3.8 17.5z"/><path d="m318.3 85.2c-4.6 0-8.7-1.2-12.3-3.7-3.6-2.4-6.5-5.4-8.7-8.9v33.5h-5.2v-75.5h4.6v10.7c2.2-3.4 5.1-6.2 8.8-8.4 3.6-2.2 7.5-3.2 11.6-3.2 3.7 0 7.1.8 10.3 2.4 3.1 1.6 5.8 3.7 8.1 6.2 2.3 2.6 4 5.6 5.3 8.9 1.3 3.4 1.9 6.8 1.9 10.3 0 3.7-.6 7.2-1.8 10.6s-2.8 6.3-5 8.9c-2.2 2.5-4.8 4.6-7.8 6-2.8 1.4-6.1 2.2-9.8 2.2zm-1.1-4.7c3.1 0 5.9-.7 8.4-2s4.7-3 6.4-5.2c1.8-2.2 3.2-4.6 4.1-7.4 1-2.8 1.4-5.6 1.4-8.5 0-3.1-.6-6-1.6-8.8-1.1-2.8-2.6-5.2-4.5-7.4-1.9-2.1-4.2-3.8-6.8-5.1s-5.4-1.9-8.3-1.9c-1.9 0-3.8.4-6 1.2-2.1.8-4.1 1.9-6 3.2s-3.4 2.9-4.7 4.6-2 3.5-2.2 5.5v17.6c.8 2 1.9 3.8 3.3 5.6 1.4 1.7 2.9 3.2 4.6 4.5s3.6 2.3 5.6 3c2.1.8 4.2 1.1 6.3 1.1z"/><path d="m355 8.9h5.3v64.6c0 2 .6 3.6 1.7 4.7 1.1 1.2 2.7 1.8 4.7 1.8.8 0 1.7-.1 2.7-.3 1.1-.2 2-.4 2.9-.8l1 4.1c-1.2.5-2.6.9-4.3 1.2s-3.2.5-4.4.5c-2.9 0-5.2-.9-7-2.6s-2.6-4.1-2.6-7z"/><path d="m382.2 102.4c.6 0 1.5 0 2.7-.1s2.1-.3 2.7-.6c.3-.1.6-.5 1-1s.9-1.4 1.5-2.6 1.4-3 2.4-5.2 2.2-5.1 3.6-8.7l-23.9-53.6h5.5l21.2 48.5 19.9-48.5h5l-29.3 70.4c-1 2.5-2.4 4.1-4.1 4.9s-3.7 1.2-6.1 1.2c-.3 0-.7 0-1 0s-.7 0-1-.1v-4.6z"/><path d="m433.5 84.1v-73.1h26.6c6 0 11.2 1 15.7 2.9s8.3 4.5 11.3 7.8 5.3 7.2 6.8 11.6 2.3 9.2 2.3 14.2c0 5.6-.8 10.6-2.5 15.1s-4.1 8.3-7.3 11.5-7 5.7-11.4 7.4c-4.4 1.8-9.4 2.6-14.9 2.6zm48.4-36.6c0-3.5-.5-6.7-1.4-9.7-1-3-2.4-5.5-4.2-7.6-1.9-2.1-4.1-3.8-6.9-4.9-2.7-1.2-5.8-1.8-9.2-1.8h-12.4v48.2h12.4c3.5 0 6.6-.6 9.3-1.9 2.7-1.2 5-2.9 6.8-5.1s3.2-4.7 4.2-7.7c.9-2.9 1.4-6.1 1.4-9.5z"/><path d="m530.7 85.2c-4.3 0-8.2-.7-11.7-2.2s-6.5-3.5-9-6-4.4-5.5-5.7-8.9-2-6.9-2-10.6c0-3.8.7-7.5 2-10.9s3.2-6.4 5.7-9 5.5-4.6 9-6.1 7.5-2.3 11.9-2.3 8.3.8 11.8 2.3 6.4 3.5 8.9 6.1c2.4 2.5 4.3 5.5 5.6 8.9s1.9 6.9 1.9 10.5c0 .9 0 1.8-.1 2.6 0 .8-.1 1.5-.3 2.1h-41.7c.2 2.1.7 4 1.5 5.7s1.9 3.1 3.2 4.2c1.3 1.2 2.8 2.1 4.4 2.7 1.7.6 3.4.9 5.2.9 2.7 0 5.3-.7 7.8-2 2.4-1.3 4.1-3.1 5-5.3l11.9 3.3c-2 4.1-5.2 7.5-9.5 10.1-4.5 2.5-9.8 3.9-15.8 3.9zm14-32.6c-.3-4.1-1.8-7.3-4.5-9.7-2.6-2.4-5.9-3.7-9.6-3.7-1.9 0-3.6.3-5.2 1s-3 1.6-4.3 2.7c-1.2 1.2-2.3 2.6-3 4.2-.8 1.6-1.3 3.5-1.4 5.5z"/><path d="m566.8 8.9h13.8v57.3c0 4.2 1.9 6.3 5.7 6.3.8 0 1.6-.1 2.6-.4s1.9-.6 2.8-.9l1.9 11c-1.9.9-4 1.6-6.5 2.1s-4.7.7-6.7.7c-4.3 0-7.7-1.2-10-3.5-2.4-2.3-3.6-5.6-3.6-9.8z"/><path d="m599 22.6v-13.7h13.8v13.7zm0 61.5v-54h13.8v54z"/><path d="m638.9 84.1-19.9-54h14.2l13.7 42.8 13.8-42.8h13l-19.9 54z"/><path d="m705.2 85.2c-4.3 0-8.2-.7-11.7-2.2s-6.5-3.5-9-6-4.4-5.5-5.7-8.9-2-6.9-2-10.6c0-3.8.7-7.5 2-10.9s3.2-6.4 5.7-9 5.5-4.6 9-6.1 7.5-2.3 11.9-2.3 8.3.8 11.8 2.3 6.4 3.5 8.9 6.1c2.4 2.5 4.3 5.5 5.6 8.9s1.9 6.9 1.9 10.5c0 .9 0 1.8-.1 2.6 0 .8-.1 1.5-.3 2.1h-41.7c.2 2.1.7 4 1.5 5.7s1.9 3.1 3.2 4.2c1.3 1.2 2.8 2.1 4.4 2.7 1.7.6 3.4.9 5.2.9 2.7 0 5.3-.7 7.8-2 2.4-1.3 4.1-3.1 5-5.3l11.9 3.3c-2 4.1-5.2 7.5-9.5 10.1-4.6 2.5-9.8 3.9-15.8 3.9zm14-32.6c-.3-4.1-1.8-7.3-4.5-9.7-2.6-2.4-5.9-3.7-9.6-3.7-1.9 0-3.6.3-5.2 1s-3 1.6-4.3 2.7c-1.2 1.2-2.3 2.6-3 4.2-.8 1.6-1.3 3.5-1.4 5.5z"/><path d="m773.5 42.1c-4.2.1-7.9.9-11.2 2.4s-5.7 3.9-7.1 7v32.7h-13.8v-54h12.6v11.5c1.9-3.7 4.3-6.7 7.3-9s6.1-3.4 9.4-3.4c.8 0 1.3 0 1.7.1.4 0 .7.1 1.1.2z"/><path d="m781.4 94.7c1.2.3 2.4.6 3.4.7s1.9.2 2.7.2c.9 0 1.7-.2 2.4-.5s1.4-.9 2-1.7c.7-.8 1.3-2 2-3.4.7-1.5 1.4-3.4 2.1-5.8l-21.4-54h14.2l14.7 42 13-42h13l-22.8 64.7c-1.4 4.1-3.7 7.3-6.9 9.5s-6.8 3.3-11 3.3c-2.4 0-4.8-.4-7.3-1.1v-11.9z"/></g><path d="m46 60.7s-1.1.1-1.7.1c-7.6 0-13.8-6.2-13.8-13.8 0-3 1-5.8 2.6-8-5.5 1.6-12.5 3.9-19.1 7.4-3.6 1.9-6.3 4.6-8.4 7.5v5.7c0 6.1 3.2 11.7 8.5 14.7l21.7 12.6c5.3 3 11.7 3 17 0l21.7-12.6c5.3-3 8.5-8.6 8.5-14.7v-14.3c-1.9 2-4.1 3.9-6.8 5.3-14.2 7.4-29.5 10-30.2 10.1z" fill="#dd1617"/><path d="m74.5 19.7-21.7-12.6c-5.3-3-11.7-3-17 0l-21.7 12.6c-5.3 3-8.5 8.6-8.5 14.7v14.2c1.9-2 4.1-3.9 6.8-5.3 14.2-7.4 30.2-9.9 30.2-9.9.6-.1 1.1-.2 1.7-.2 7.6 0 13.8 6.2 13.8 13.8 0 3-1 5.7-2.6 8 5.5-1.6 12.4-3.9 19-7.4 3.6-1.9 6.3-4.6 8.4-7.5v-5.6c.1-6.2-3.1-11.8-8.4-14.8z" fill="#dd1617"/><circle cx="44.3" cy="46.9" fill="#212f44" r="10.4"/><path d="m33 39.1c0-.1 0-.1.1-.2-5.5 1.6-12.5 3.9-19.1 7.4-3.6 1.9-6.3 4.6-8.4 7.5v5.7c0 1.5.6 4.3.6 4.3s1.1-3.5 9.5-12.4c5.6-6.1 14.7-11.1 17.3-12.3z" fill="#be1818"/><path d="m73.1 42.5c-5.5 6.2-14.7 11-17.3 12.3 0 0 0 .1-.1.1 5.5-1.6 12.4-3.9 18.9-7.3 3.6-1.9 6.3-4.6 8.4-7.5v-5.6c0-1.4-.6-4.2-.6-4.2s-.5 2.4-9.3 12.2z" fill="#be1818"/><path d="m40.5 33.2c21.8-7.5 29.4-11.2 36.8-11.4-.9-.8-1.7-1.5-2.8-2.1l-21.7-12.6c-5.3-3-11.7-3-17 0l-21.7 12.6c-5.3 3-8.5 8.6-8.5 14.7v14.2c1.4-1.5 3.1-2.8 4.9-4 8.2-4.2 8.2-3.9 30-11.4z" fill="url(#b)"/><path d="m14.1 74.2 21.7 12.6c5.3 3 11.7 3 17 0l21.7-12.6c5.3-3 8.5-8.6 8.5-14.7v-13.8c-1.4 1.4-2.9 2.7-4.6 3.8-2.2 1.1-3.8 1.9-5.4 2.5-7.1 3.3-14.1 5.5-19.2 6.9-1.7.6-3.5 1.2-5.5 1.9-21.8 7.5-29.4 11.2-36.8 11.4.8.7 1.6 1.4 2.6 2z" fill="url(#c)"/></svg>