<svg id="Ebene_1" data-name="Ebene 1" xmlns="http://www.w3.org/2000/svg" viewBox="0 0 500 500"><defs><style>.cls-1{fill:#db1919;}.cls-2{fill:#2f3641;}.cls-3{fill:#bd181d;}</style></defs><g id="dark"><path class="cls-1" d="M259,313.42h-7.9a62.65,62.65,0,0,1-50.31-99.6,460.63,460.63,0,0,0-87.75,33.89,111.3,111.3,0,0,0-41.17,34.1V308a77.54,77.54,0,0,0,39.51,66.74l99.8,57.6a77.59,77.59,0,0,0,77.77,0l99.8-57.6a78.18,78.18,0,0,0,39.09-67.57V242.72a127.75,127.75,0,0,1-31.4,24.33A531,531,0,0,1,259,313.42Z"/><path class="cls-1" d="M388.79,125.25,289,67.65a77.59,77.59,0,0,0-77.77,0l-99.8,57.6a78,78,0,0,0-39.51,67.36v65.08a119.32,119.32,0,0,1,31.4-24.53,519.91,519.91,0,0,1,139.1-45.54,47,47,0,0,1,7.69,0A62.93,62.93,0,0,1,300.84,287a481,481,0,0,0,87.32-33.89,111.25,111.25,0,0,0,38.68-34.52v-26A78,78,0,0,0,388.79,125.25Z"/><circle class="cls-2" cx="250.1" cy="250.42" r="47.61"/><path class="cls-3" d="M198.33,214.24h0a460.29,460.29,0,0,0-87.74,33.89,111.36,111.36,0,0,0-38.68,33.68v26a132.81,132.81,0,0,0,2.71,19.76,205.29,205.29,0,0,1,44.08-56.77A304.57,304.57,0,0,1,198.33,214.24Z"/></g><g id="white"><path class="cls-1" d="M259,313.42h-7.9a62.65,62.65,0,0,1-50.31-99.6,460.63,460.63,0,0,0-87.75,33.89,111.3,111.3,0,0,0-41.17,34.1V308a77.54,77.54,0,0,0,39.51,66.74l99.8,57.6a77.59,77.59,0,0,0,77.77,0l99.8-57.6a78.18,78.18,0,0,0,39.09-67.57V242.72a127.75,127.75,0,0,1-31.4,24.33A531,531,0,0,1,259,313.42Z"/><path class="cls-1" d="M388.79,125.25,289,67.65a77.59,77.59,0,0,0-77.77,0l-99.8,57.6a78,78,0,0,0-39.51,67.36v65.08a119.32,119.32,0,0,1,31.4-24.53,519.91,519.91,0,0,1,139.1-45.54,47,47,0,0,1,7.69,0A62.93,62.93,0,0,1,300.84,287a481,481,0,0,0,87.32-33.89,111.25,111.25,0,0,0,38.68-34.52v-26A78,78,0,0,0,388.79,125.25Z"/><path class="cls-3" d="M198.33,214.24h0a460.29,460.29,0,0,0-87.74,33.89,111.36,111.36,0,0,0-38.68,33.68v26a132.81,132.81,0,0,0,2.71,19.76,205.29,205.29,0,0,1,44.08-56.77A304.57,304.57,0,0,1,198.33,214.24Z"/><path class="cls-3" d="M382.14,229.21a300.35,300.35,0,0,1-81.3,57.8l1.66-1.46a485.1,485.1,0,0,0,86.91-33.68,110.06,110.06,0,0,0,38.68-34.72V192.82c-.38-6.43-2.09-12.38-3.38-18.69C424.71,174.13,422.47,184.92,382.14,229.21Z"/></g></svg>